<?xml version="1.0" encoding="UTF-8" standalone="no"?>
<!-- Created with Inkscape (http://www.inkscape.org/) -->

<svg
   width="32.417999mm"
   height="32.417999mm"
   viewBox="0 0 32.418 32.417999"
   version="1.1"
   id="svg1"
   sodipodi:docname="favicon.svg"
   inkscape:version="1.3.2 (091e20ef0f, 2023-11-25)"
   xmlns:inkscape="http://www.inkscape.org/namespaces/inkscape"
   xmlns:sodipodi="http://sodipodi.sourceforge.net/DTD/sodipodi-0.dtd"
   xmlns="http://www.w3.org/2000/svg"
   xmlns:svg="http://www.w3.org/2000/svg">
  <sodipodi:namedview
     id="namedview1"
     pagecolor="#505050"
     bordercolor="#ffffff"
     borderopacity="1"
     inkscape:showpageshadow="0"
     inkscape:pageopacity="0"
     inkscape:pagecheckerboard="1"
     inkscape:deskcolor="#505050"
     inkscape:document-units="mm"
     showguides="true"
     inkscape:zoom="1.436055"
     inkscape:cx="-97.489303"
     inkscape:cy="79.732323"
     inkscape:window-width="1920"
     inkscape:window-height="1041"
     inkscape:window-x="0"
     inkscape:window-y="0"
     inkscape:window-maximized="1"
     inkscape:current-layer="layer1">
    <sodipodi:guide
       position="-5.9569264,15.694377"
       orientation="0,-1"
       id="guide40"
       inkscape:locked="false" />
  </sodipodi:namedview>
  <defs
     id="defs1" />
  <g
     inkscape:label="Camada 1"
     inkscape:groupmode="layer"
     id="layer1"
     transform="translate(-14.26381,-98.071838)">
    <g
       id="g51"
       transform="translate(-113.90422,10.700714)">
      <path
         style="font-weight:500;font-size:26.1056px;line-height:0.9;font-family:Lexend;-inkscape-font-specification:'Lexend Medium';text-align:center;text-anchor:middle;fill:#ffffff;stroke-linecap:round;stroke-linejoin:round;stroke-opacity:0.99897;paint-order:stroke markers fill"
         d="m 151.44876,113.00424 q -1.95792,0 -3.62868,-0.70485 -1.67076,-0.70485 -2.92383,-1.95792 -1.22696,-1.27917 -1.90571,-3.00214 -0.67874,-1.72297 -0.67874,-3.75921 0,-2.03624 0.67874,-3.759205 0.67875,-1.72297 1.90571,-2.976039 1.25307,-1.279174 2.92383,-1.984025 1.67076,-0.704852 3.62868,-0.704852 1.98402,0 3.65478,0.704852 1.67076,0.704851 2.89772,1.984025 1.22697,1.279175 1.90571,3.002144 0.67875,1.69686 0.67875,3.7331 0,2.01013 -0.67875,3.7331 -0.67874,1.72297 -1.90571,3.00215 -1.22696,1.27917 -2.89772,1.98402 -1.67076,0.70485 -3.65478,0.70485 z m 0,-3.23709 q 1.25307,0 2.27119,-0.4438 1.04422,-0.4699 1.80128,-1.30528 0.75707,-0.86148 1.17475,-1.98402 0.4438,-1.12254 0.4438,-2.45393 0,-1.33138 -0.4438,-2.45393 -0.41768,-1.12254 -1.17475,-1.957915 -0.75706,-0.861485 -1.80128,-1.30528 -1.01812,-0.469901 -2.27119,-0.469901 -1.22696,0 -2.27119,0.469901 -1.04422,0.443795 -1.80128,1.279174 -0.75707,0.835379 -1.17476,1.957921 -0.41769,1.12254 -0.41769,2.48003 0,1.33139 0.41769,2.48003 0.41769,1.12254 1.17476,1.95792 0.75706,0.83538 1.80128,1.30528 1.04423,0.4438 2.27119,0.4438 z"
         id="path50" />
      <path
         id="path13"
         style="fill:#ffffff;stroke-width:1.20193;stroke-linecap:round;stroke-linejoin:round;stroke-opacity:0.99897;paint-order:stroke markers fill"
         d="m 143.57763,92.32864 c -0.29993,0.0021 -0.43201,0.106454 -0.43201,0.106454 0,0 -1.09492,2.355434 -0.6041,4.524788 0.49081,2.169351 1.48725,2.707328 1.48725,2.707328 l 3.73466,-3.835424 c 0,0 -0.31652,-1.180264 -2.12184,-2.562118 -1.0155,-0.777293 -1.67833,-0.943732 -2.06396,-0.941028 z m 15.78199,0 c -0.38563,-0.0027 -1.04846,0.163735 -2.06396,0.941028 -1.80532,1.381854 -2.12183,2.562118 -2.12183,2.562118 l 3.73465,3.835424 c 0,0 0.99644,-0.537977 1.48725,-2.707328 0.49082,-2.169354 -0.6041,-4.524788 -0.6041,-4.524788 0,0 -0.13208,-0.104351 -0.43201,-0.106454 z" />
    </g>
    <path
       style="font-weight:500;font-size:26.1056px;line-height:0.9;font-family:Lexend;-inkscape-font-specification:'Lexend Medium';text-align:center;text-anchor:middle;fill:#f87171;stroke-linecap:round;stroke-linejoin:round;stroke-opacity:0.99897;paint-order:stroke markers fill"
       d="m 21.495061,123.70496 q -1.592441,0 -2.923827,-0.39158 -1.331386,-0.41769 -2.401715,-1.22696 -1.07033,-0.80928 -1.905709,-1.95792 l 2.218976,-2.50614 q 1.279174,1.77518 2.506138,2.45392 1.226963,0.67875 2.767193,0.67875 0.887591,0 1.618548,-0.26106 0.730956,-0.28716 1.148646,-0.75706 0.41769,-0.496 0.41769,-1.12254 0,-0.44379 -0.18274,-0.80927 -0.156633,-0.39159 -0.496006,-0.67875 -0.339373,-0.31327 -0.835379,-0.57432 -0.496007,-0.26106 -1.122541,-0.4438 -0.626534,-0.18274 -1.383597,-0.33937 -1.435808,-0.28716 -2.506138,-0.75706 -1.070329,-0.49601 -1.801286,-1.20086 -0.730957,-0.73096 -1.07033,-1.61855 -0.339372,-0.91369 -0.339372,-2.06233 0,-1.14865 0.496006,-2.11456 0.522112,-0.96591 1.409702,-1.67076 0.887591,-0.70485 2.062343,-1.09643 1.174752,-0.39159 2.532243,-0.39159 1.540231,0 2.741088,0.36548 1.226963,0.36548 2.140659,1.09644 0.939802,0.70485 1.540231,1.72297 l -2.245082,2.21897 q -0.522112,-0.80927 -1.174752,-1.33138 -0.65264,-0.54822 -1.409702,-0.80928 -0.757063,-0.28716 -1.592442,-0.28716 -0.939802,0 -1.644653,0.26106 -0.678745,0.26105 -1.070329,0.75706 -0.391584,0.4699 -0.391584,1.14865 0,0.52211 0.23495,0.93979 0.23495,0.39159 0.65264,0.70486 0.443795,0.31326 1.122541,0.54821 0.678746,0.23495 1.54023,0.41769 1.435808,0.28716 2.584455,0.78317 1.148646,0.4699 1.95792,1.14865 0.809273,0.65264 1.226963,1.51412 0.41769,0.83538 0.41769,1.87961 0,1.80128 -0.861485,3.10656 -0.835379,1.27918 -2.37561,1.98403 -1.54023,0.67874 -3.602573,0.67874 z"
       id="path40" />
  </g>
</svg>
